<svg width="168" height="40" viewBox="0 0 168 40" fill="none" xmlns="http://www.w3.org/2000/svg">
<path d="M56.9366 14.2934C55.985 14.2934 55.1523 14.4792 54.4385 14.8507C53.7418 15.2054 53.164 15.7965 52.7052 16.6241C52.3653 15.9654 51.8895 15.4165 51.2778 14.9774C50.666 14.5214 49.9353 14.2934 49.0856 14.2934C48.4738 14.2934 47.9385 14.3694 47.4797 14.5214C47.0379 14.6734 46.6555 14.8507 46.3326 15.0534C46.0098 15.2561 45.7464 15.4672 45.5424 15.6867C45.3555 15.9063 45.2111 16.0752 45.1091 16.1934V15.6361C45.1091 15.2645 44.9816 14.9521 44.7267 14.6987C44.4718 14.4285 44.1575 14.2934 43.7836 14.2934C43.4097 14.2934 43.0869 14.4285 42.815 14.6987C42.5601 14.9521 42.4326 15.2645 42.4326 15.6361V27.6187C42.4326 27.9903 42.5601 28.3112 42.815 28.5814C43.0869 28.8347 43.4097 28.9614 43.7836 28.9614C44.1575 28.9614 44.4718 28.8347 44.7267 28.5814C44.9816 28.3112 45.1091 27.9903 45.1091 27.6187V20.2721C45.1091 19.7823 45.1686 19.3094 45.2875 18.8534C45.4235 18.3974 45.6189 17.9921 45.8738 17.6374C46.1457 17.2827 46.4856 17.0041 46.8934 16.8014C47.3013 16.5818 47.7856 16.4721 48.3464 16.4721C49.0261 16.4721 49.5529 16.6832 49.9268 17.1054C50.3006 17.5276 50.4876 18.0343 50.4876 18.6254V27.6187C50.4876 27.9903 50.615 28.3112 50.8699 28.5814C51.1418 28.8347 51.4647 28.9614 51.8385 28.9614C52.2124 28.9614 52.5268 28.8347 52.7817 28.5814C53.0366 28.3112 53.164 27.9903 53.164 27.6187V20.2721C53.164 19.7823 53.2235 19.3094 53.3425 18.8534C53.4784 18.3974 53.6738 17.9921 53.9287 17.6374C54.2006 17.2827 54.5405 17.0041 54.9484 16.8014C55.3562 16.5818 55.8405 16.4721 56.4013 16.4721C57.0471 16.4721 57.5654 16.6832 57.9562 17.1054C58.3471 17.5276 58.5425 18.0343 58.5425 18.6254V27.6187C58.5425 27.9903 58.6699 28.3112 58.9248 28.5814C59.1967 28.8347 59.5196 28.9614 59.8935 28.9614C60.2673 28.9614 60.5817 28.8347 60.8366 28.5814C61.0915 28.3112 61.219 27.9903 61.219 27.6187V18.4987C61.219 17.8063 61.1085 17.1983 60.8876 16.6747C60.6667 16.1512 60.3608 15.7121 59.9699 15.3574C59.5961 15.0027 59.1458 14.741 58.619 14.5721C58.1092 14.3863 57.5484 14.2934 56.9366 14.2934Z" fill="white"/>
<path d="M75.2751 22.4254C75.6829 22.4254 76.0398 22.265 76.3457 21.9441C76.6516 21.6232 76.8045 21.1503 76.8045 20.5254C76.8045 19.5121 76.6261 18.6085 76.2692 17.8147C75.9123 17.021 75.4195 16.3538 74.7908 15.8134C74.179 15.2561 73.4483 14.8338 72.5986 14.5467C71.7659 14.2596 70.8653 14.1161 69.8966 14.1161C68.843 14.1161 67.8914 14.3187 67.0417 14.7241C66.192 15.1125 65.4613 15.6445 64.8495 16.3201C64.2548 16.9956 63.7959 17.7978 63.4731 18.7267C63.1502 19.6387 62.9887 20.6098 62.9887 21.6401C62.9887 22.6365 63.1417 23.5907 63.4476 24.5027C63.7705 25.4147 64.2293 26.217 64.8241 26.9094C65.4358 27.585 66.1835 28.1254 67.0672 28.5307C67.9509 28.9361 68.9535 29.1387 70.0751 29.1387C71.1796 29.1387 72.1143 28.9867 72.879 28.6827C73.6437 28.3787 74.264 28.0241 74.7398 27.6187C75.2326 27.2134 75.5895 26.8081 75.8104 26.4027C76.0313 25.9974 76.1417 25.6934 76.1417 25.4907C76.1417 25.153 76.0143 24.8743 75.7594 24.6547C75.5045 24.4352 75.2241 24.3254 74.9182 24.3254C74.7313 24.3254 74.5528 24.3676 74.3829 24.4521C74.213 24.5365 74.06 24.6801 73.9241 24.8827C73.6862 25.2374 73.4483 25.5498 73.2104 25.8201C72.9725 26.0734 72.7091 26.2845 72.4202 26.4534C72.1313 26.6223 71.7999 26.749 71.426 26.8334C71.0522 26.9178 70.6019 26.9601 70.0751 26.9601C69.4293 26.9601 68.877 26.8587 68.4182 26.6561C67.9764 26.4365 67.6025 26.1663 67.2966 25.8454C66.9907 25.5245 66.7443 25.1783 66.5574 24.8067C66.3875 24.4183 66.2515 24.0552 66.1495 23.7174C66.0646 23.3796 66.0051 23.0925 65.9711 22.8561C65.9541 22.6027 65.9456 22.4592 65.9456 22.4254H75.2751ZM69.9476 16.2947C70.6783 16.2947 71.3156 16.4045 71.8594 16.6241C72.4032 16.8436 72.845 17.1392 73.1849 17.5107C73.5417 17.8654 73.8051 18.2792 73.9751 18.7521C74.145 19.225 74.23 19.7232 74.23 20.2467H65.9711C65.9711 20.213 65.9796 20.0947 65.9966 19.8921C66.0136 19.6725 66.0646 19.4192 66.1495 19.1321C66.2345 18.845 66.362 18.5325 66.5319 18.1947C66.7018 17.857 66.9312 17.553 67.2201 17.2827C67.526 16.9956 67.8999 16.7592 68.3417 16.5734C68.7835 16.3876 69.3188 16.2947 69.9476 16.2947Z" fill="white"/>
<path d="M85.6249 14.2934C85.0132 14.2934 84.4694 14.361 83.9936 14.4961C83.5347 14.6143 83.1269 14.7663 82.77 14.9521C82.4132 15.1378 82.1073 15.3405 81.8524 15.5601C81.6145 15.7627 81.4105 15.9401 81.2406 16.0921V15.6361C81.2406 15.2645 81.1132 14.9521 80.8582 14.6987C80.6033 14.4285 80.289 14.2934 79.9151 14.2934C79.5413 14.2934 79.2184 14.4285 78.9465 14.6987C78.6916 14.9521 78.5641 15.2645 78.5641 15.6361V27.6187C78.5641 27.9903 78.6916 28.3112 78.9465 28.5814C79.2184 28.8347 79.5413 28.9614 79.9151 28.9614C80.289 28.9614 80.6033 28.8347 80.8582 28.5814C81.1132 28.3112 81.2406 27.9903 81.2406 27.6187V20.2721C81.2406 19.7316 81.3256 19.2334 81.4955 18.7774C81.6654 18.3045 81.9034 17.8992 82.2092 17.5614C82.5321 17.2236 82.923 16.9618 83.3818 16.7761C83.8406 16.5734 84.3504 16.4721 84.9112 16.4721C85.2511 16.4721 85.5909 16.5227 85.9308 16.6241C86.2877 16.7254 86.6021 16.8774 86.874 17.0801C87.1628 17.2658 87.3923 17.5107 87.5622 17.8147C87.7491 18.1018 87.8426 18.4312 87.8426 18.8027V27.6187C87.8426 27.9903 87.97 28.3112 88.2249 28.5814C88.4798 28.8347 88.7942 28.9614 89.1681 28.9614C89.5419 28.9614 89.8563 28.8347 90.1112 28.5814C90.3831 28.3112 90.5191 27.9903 90.5191 27.6187V18.4987C90.5191 17.8063 90.3831 17.1983 90.1112 16.6747C89.8393 16.1512 89.474 15.7121 89.0151 15.3574C88.5563 15.0027 88.0295 14.741 87.4347 14.5721C86.857 14.3863 86.2537 14.2934 85.6249 14.2934Z" fill="white"/>
<path d="M97.0669 11.4561C97.0669 11.0845 96.9309 10.7721 96.659 10.5187C96.4041 10.2654 96.0898 10.1387 95.7159 10.1387C95.342 10.1387 95.0277 10.2654 94.7728 10.5187C94.5179 10.7721 94.3904 11.0845 94.3904 11.4561V14.6227H93.4473C93.1244 14.6227 92.844 14.741 92.6061 14.9774C92.3852 15.197 92.2747 15.4672 92.2747 15.7881C92.2747 16.1258 92.3852 16.4045 92.6061 16.6241C92.844 16.8436 93.1244 16.9534 93.4473 16.9534H94.3904V27.6187C94.3904 27.9903 94.5179 28.3112 94.7728 28.5814C95.0277 28.8347 95.342 28.9614 95.7159 28.9614C96.0898 28.9614 96.4041 28.8347 96.659 28.5814C96.9309 28.3112 97.0669 27.9903 97.0669 27.6187V16.9534H98.4689C98.7917 16.9534 99.0636 16.8436 99.2845 16.6241C99.5224 16.4045 99.6414 16.1258 99.6414 15.7881C99.6414 15.4672 99.5224 15.197 99.2845 14.9774C99.0636 14.741 98.7917 14.6227 98.4689 14.6227H97.0669V11.4561Z" fill="white"/>
<path d="M107.481 29.1387C108.483 29.1387 109.41 28.9698 110.259 28.6321C111.126 28.2943 111.874 27.813 112.502 27.1881C113.131 26.5463 113.624 25.761 113.981 24.8321C114.338 23.9032 114.516 22.8392 114.516 21.6401C114.516 20.441 114.338 19.377 113.981 18.4481C113.624 17.5192 113.131 16.7338 112.502 16.0921C111.874 15.4503 111.126 14.9605 110.259 14.6227C109.41 14.285 108.483 14.1161 107.481 14.1161C106.478 14.1161 105.544 14.285 104.677 14.6227C103.827 14.9605 103.088 15.4503 102.459 16.0921C101.831 16.7338 101.338 17.5192 100.981 18.4481C100.624 19.377 100.446 20.441 100.446 21.6401C100.446 22.8392 100.624 23.9032 100.981 24.8321C101.338 25.761 101.831 26.5463 102.459 27.1881C103.088 27.813 103.827 28.2943 104.677 28.6321C105.544 28.9698 106.478 29.1387 107.481 29.1387ZM111.84 21.6401C111.84 22.569 111.729 23.3712 111.508 24.0467C111.287 24.7054 110.982 25.2543 110.591 25.6934C110.217 26.1156 109.758 26.4365 109.214 26.6561C108.687 26.8587 108.11 26.9601 107.481 26.9601C106.852 26.9601 106.266 26.8587 105.722 26.6561C105.195 26.4365 104.736 26.1156 104.346 25.6934C103.972 25.2543 103.674 24.7054 103.453 24.0467C103.232 23.3712 103.122 22.569 103.122 21.6401C103.122 20.7112 103.232 19.909 103.453 19.2334C103.674 18.5578 103.972 18.009 104.346 17.5867C104.736 17.1476 105.195 16.8267 105.722 16.6241C106.266 16.4045 106.852 16.2947 107.481 16.2947C108.11 16.2947 108.687 16.4045 109.214 16.6241C109.758 16.8267 110.217 17.1476 110.591 17.5867C110.982 18.009 111.287 18.5578 111.508 19.2334C111.729 19.909 111.84 20.7112 111.84 21.6401Z" fill="white"/>
<path d="M118.946 20.8041C118.946 20.517 118.989 20.1538 119.074 19.7147C119.159 19.2756 119.312 18.8534 119.533 18.4481C119.771 18.0427 120.093 17.6965 120.501 17.4094C120.909 17.1054 121.436 16.9534 122.082 16.9534C122.455 16.9534 122.77 16.8267 123.025 16.5734C123.297 16.3032 123.433 15.9907 123.433 15.6361C123.433 15.2645 123.297 14.9521 123.025 14.6987C122.77 14.4285 122.455 14.2934 122.082 14.2934C121.691 14.2934 121.317 14.3778 120.96 14.5467C120.62 14.6987 120.306 14.8845 120.017 15.1041C119.745 15.3067 119.516 15.5094 119.329 15.7121C119.142 15.9147 119.014 16.0498 118.946 16.1174V15.6361C118.946 15.2645 118.819 14.9521 118.564 14.6987C118.309 14.4285 117.995 14.2934 117.621 14.2934C117.247 14.2934 116.924 14.4285 116.652 14.6987C116.397 14.9521 116.27 15.2645 116.27 15.6361V27.6187C116.27 27.9903 116.397 28.3112 116.652 28.5814C116.924 28.8347 117.247 28.9614 117.621 28.9614C117.995 28.9614 118.309 28.8347 118.564 28.5814C118.819 28.3112 118.946 27.9903 118.946 27.6187V20.8041Z" fill="white"/>
<path d="M147.842 26.985V17.7874C147.842 17.1117 147.688 16.5458 147.38 16.0897C147.09 15.6168 146.722 15.2367 146.278 14.9495C145.85 14.6624 145.38 14.4597 144.867 14.3414C144.372 14.2063 143.927 14.1387 143.534 14.1387C142.748 14.1387 142.081 14.2147 141.534 14.3668C140.987 14.5019 140.517 14.6793 140.124 14.8989C139.748 15.1185 139.44 15.3634 139.201 15.6337C138.962 15.887 138.765 16.132 138.611 16.3685C138.423 16.0982 138.218 15.8364 137.996 15.583C137.774 15.3127 137.5 15.0762 137.176 14.8735C136.851 14.6539 136.458 14.4766 135.996 14.3414C135.552 14.2063 134.996 14.1387 134.33 14.1387C133.766 14.1387 133.253 14.2063 132.791 14.3414C132.347 14.4597 131.954 14.6117 131.612 14.7975C131.27 14.9833 130.979 15.186 130.74 15.4056C130.501 15.6083 130.304 15.7941 130.15 15.9631C130.15 15.4732 129.971 15.0509 129.612 14.6962C129.253 14.3245 128.817 14.1387 128.304 14.1387C127.792 14.1387 127.347 14.3245 126.971 14.6962C126.612 15.0509 126.433 15.4732 126.433 15.9631V26.985C126.433 27.4749 126.612 27.9056 126.971 28.2772C127.347 28.632 127.792 28.8093 128.304 28.8093C128.817 28.8093 129.253 28.632 129.612 28.2772C129.971 27.9056 130.15 27.4749 130.15 26.985V19.7131C130.15 19.0036 130.398 18.4039 130.894 17.9141C131.39 17.4242 131.996 17.1793 132.714 17.1793C133.432 17.1793 134.039 17.4242 134.535 17.9141C135.03 18.4039 135.278 19.0036 135.278 19.7131V26.985C135.278 27.4749 135.458 27.9056 135.817 28.2772C136.193 28.632 136.637 28.8093 137.15 28.8093C137.646 28.8093 138.073 28.632 138.432 28.2772C138.808 27.9056 138.996 27.4749 138.996 26.985V19.7131C138.996 19.0036 139.244 18.4039 139.74 17.9141C140.235 17.4242 140.842 17.1793 141.56 17.1793C142.278 17.1793 142.885 17.4242 143.38 17.9141C143.876 18.4039 144.124 19.0036 144.124 19.7131V26.985C144.124 27.4749 144.303 27.9056 144.662 28.2772C145.021 28.632 145.457 28.8093 145.97 28.8093C146.483 28.8093 146.919 28.632 147.278 28.2772C147.654 27.9056 147.842 27.4749 147.842 26.985Z" fill="white"/>
<path d="M162.125 22.5762C162.552 22.5762 162.877 22.382 163.099 21.9935C163.322 21.6049 163.433 21.1151 163.433 20.5239C163.433 19.8989 163.304 19.2147 163.048 18.4715C162.792 17.7283 162.39 17.0357 161.843 16.3938C161.313 15.7519 160.629 15.2198 159.792 14.7975C158.971 14.3583 157.988 14.1387 156.843 14.1387C155.664 14.1387 154.638 14.3414 153.767 14.7468C152.895 15.1522 152.168 15.7012 151.587 16.3938C151.006 17.0695 150.57 17.8634 150.28 18.7756C150.006 19.6708 149.869 20.6252 149.869 21.6387C149.869 22.6522 150.023 23.6151 150.331 24.5272C150.656 25.4225 151.117 26.2164 151.715 26.909C152.331 27.5847 153.083 28.1252 153.972 28.5306C154.86 28.936 155.869 29.1387 156.997 29.1387C157.988 29.1387 158.843 28.9952 159.561 28.708C160.279 28.4039 160.877 28.0577 161.356 27.6691C161.834 27.2637 162.185 26.8668 162.407 26.4783C162.646 26.0729 162.766 25.7604 162.766 25.5408C162.766 25.3212 162.715 25.11 162.612 24.9073C162.51 24.6877 162.381 24.4935 162.228 24.3245C162.074 24.1556 161.894 24.0205 161.689 23.9191C161.484 23.8178 161.279 23.7671 161.074 23.7671C160.749 23.7671 160.458 23.9191 160.202 24.2232C159.911 24.561 159.647 24.8566 159.407 25.11C159.185 25.3465 158.954 25.5408 158.715 25.6928C158.476 25.8448 158.219 25.9631 157.946 26.0475C157.672 26.1151 157.356 26.1489 156.997 26.1489C156.399 26.1489 155.869 26.0475 155.407 25.8448C154.963 25.6421 154.587 25.3887 154.279 25.0847C153.972 24.7806 153.741 24.4681 153.587 24.1472C153.433 23.8093 153.356 23.5137 153.356 23.2604C153.356 23.0577 153.399 22.8972 153.484 22.7789C153.587 22.6438 153.732 22.5762 153.92 22.5762H162.125ZM156.843 17.1286C157.407 17.1286 157.894 17.2215 158.305 17.4073C158.715 17.5931 159.048 17.8212 159.305 18.0914C159.578 18.3448 159.775 18.6151 159.894 18.9022C160.031 19.1894 160.099 19.4428 160.099 19.6624C160.099 19.9833 159.988 20.1438 159.766 20.1438H153.92C153.664 20.1438 153.536 19.9749 153.536 19.637C153.536 19.4174 153.604 19.1641 153.741 18.8769C153.878 18.5897 154.074 18.3195 154.331 18.0661C154.604 17.7958 154.946 17.5762 155.356 17.4073C155.784 17.2215 156.279 17.1286 156.843 17.1286Z" fill="white"/>
<path d="M15.0154 6.8174C15.3807 6.14563 16.2596 5.95882 16.8666 6.4239L19.5872 8.50833C19.9584 8.79272 20.4576 8.8452 20.8799 8.64419L23.9744 7.17095C24.6648 6.84224 25.4857 7.2077 25.7034 7.94075L26.6792 11.2262C26.8123 11.6745 27.1854 12.0104 27.6451 12.0959L31.0146 12.723C31.7664 12.8629 32.2156 13.641 31.9609 14.362L30.8192 17.5936C30.6634 18.0345 30.7678 18.5255 31.0894 18.8649L33.4468 21.3527C33.9728 21.9078 33.8789 22.8014 33.249 23.235L30.4258 25.1783C30.0407 25.4435 29.8365 25.902 29.8972 26.3657L30.3421 29.764C30.4413 30.5222 29.8401 31.19 29.0756 31.1705L25.6494 31.0833C25.182 31.0714 24.7472 31.3224 24.5238 31.7332L22.8863 34.744C22.5209 35.4157 21.642 35.6025 21.035 35.1375L18.3144 33.053C17.9432 32.7686 17.444 32.7162 17.0218 32.9172L13.9272 34.3904C13.2368 34.7191 12.4159 34.3537 12.1982 33.6206L11.2224 30.3351C11.0893 29.8869 10.7162 29.551 10.2565 29.4654L6.88706 28.8384C6.13526 28.6985 5.686 27.9204 5.94074 27.1993L7.08244 23.9678C7.23822 23.5269 7.13385 23.0359 6.81221 22.6964L4.45482 20.2086C3.92883 19.6535 4.02276 18.7599 4.65265 18.3263L7.47577 16.383C7.86095 16.1179 8.06513 15.6593 8.00443 15.1957L7.55955 11.7973C7.46029 11.0391 8.06152 10.3714 8.82598 10.3908L12.2522 10.4781C12.7196 10.49 13.1544 10.239 13.3778 9.82818L15.0154 6.8174Z" fill="white"/>
<path fill-rule="evenodd" clip-rule="evenodd" d="M13.8343 21.9852L13.6196 25.7374C13.5805 26.4199 12.9902 26.9443 12.3011 26.9086C11.6119 26.873 11.0849 26.2908 11.124 25.6083L11.5106 18.8523C11.5961 17.3589 13.5725 16.8543 14.3658 18.1234L16.3452 21.2899L17.0185 17.5766L18.3636 24.1534C18.1131 25.5348 16.2742 25.8885 15.5303 24.6983L13.8343 21.9852Z" fill="#0FCF73"/>
<path fill-rule="evenodd" clip-rule="evenodd" d="M24.4847 19.8237L26.1986 23.1661C26.5103 23.774 27.257 24.0142 27.8664 23.7025C28.4758 23.3908 28.717 22.6454 28.4053 22.0375L25.3194 16.0195C24.6372 14.6893 22.6438 15.0285 22.4397 16.5096L21.9303 20.2052L19.8171 17.0841L21.2628 23.6395C22.049 24.8006 23.8568 24.3792 24.0482 22.9901L24.4847 19.8237Z" fill="#0FCF73"/>
<path fill-rule="evenodd" clip-rule="evenodd" d="M19.4179 20.9006L17.0942 17.7677C17.1797 16.2744 19.1561 15.7698 19.9494 17.0389L21.9287 20.2054L22.602 16.4921L23.9472 23.0688C23.6967 24.4503 21.8578 24.804 21.1138 23.6138L19.4179 20.9006Z" fill="#0FCF73"/>
<path fill-rule="evenodd" clip-rule="evenodd" d="M18.993 20.9484L19.8363 17.1747C19.1563 15.8571 17.1606 16.1977 16.9532 17.6666L16.4357 21.3319L14.3272 18.2417L15.7606 24.7385C16.545 25.8882 18.3551 25.4666 18.5496 24.0889L18.993 20.9484Z" fill="#0FCF73"/>
</svg>
